<svg xmlns:rdf="http://www.w3.org/1999/02/22-rdf-syntax-ns#" xmlns="http://www.w3.org/2000/svg" xml:space="preserve" height="677.92" width="1121.1" version="1.1" xmlns:cc="http://creativecommons.org/ns#" xmlns:dc="http://purl.org/dc/elements/1.1/" viewBox="0 0 1121.1108 677.92242"><g transform="matrix(1.25 0 0 -1.25 -48.555 791.71)"><path d="m405.29 181.03c-6.959-28.459-13.896-56.918-20.858-85.377h194.83c-6.9464 28.459-13.918 56.918-20.842 85.377h-153.13" fill="#e6e6e6"/><path d="m152.65 214.23v-47.038c0-9.0457 7.3273-16.379 16.382-16.379h625.62c9.0489 0 16.392 7.3335 16.392 16.379v47.038h-658.39" fill="#e6e6e6"/><path d="m811.04 214.23v398.28c0 9.0646-7.343 16.401-16.392 16.401h-625.62c-9.0552 0-16.382-7.3367-16.382-16.401v-398.28h658.39" fill="#0e303f"/><path d="m179.6 241.43h604.47v361.85h-604.47v-361.85z" fill="#fd6120"/><path d="m179.6 241.43 604.47 361.85v-361.85h-604.47" fill="#de3f18"/><path d="m398.04 150.94-4.2914-17.028 175.94 0.63477-3.9844 16.435-167.66-0.0423" fill="#999"/><g transform="translate(6.6075 -1.7142)"><path d="m363.89 311.65c-10.449-12.917-11.876-29.25-2.7765-35.973l24.081-17.792c9.1018-6.7229 24.295-0.55852 33.569 13.225l176.51 256.86c4.2268 6.2839 2.8156 14.761-3.05 19.093l-15.519 11.465c-5.8633 4.3326-14.381 3.1925-19.146-2.6961l-193.66-244.19" fill="#344a5e"/><path d="m580.55 544.33 6.2426-4.6107c1.9721-1.4572 2.3743-4.4337 0.94466-6.5598l-176.55-256.94c-5.091-7.5665-11.389-11.037-15.586-11.763-2.0939-0.36315-3.7625-0.0965-4.9623 0.78837l-10.52 7.7733 200.44 271.31" fill="#415f75"/><path d="m595.13 439.19c4.259-0.40683 21.86 0.66884 53.232 4.0338-7.3895 29.183-12.251 45.254-13.993 48.835l-127.26 94.02c-0.81135 0.5976-1.9583 0.42522-2.5582-0.38613l90.58-146.5" fill="#e6e6e6"/><path d="m319.67 466.84c-14.071 12.768-17.576 73.945-17.576 73.945l2.064 1.9491 32.93-35.065 33.514-10.007 25.425 24.016-8.0882 34.028-33.026 34.973 2.434 2.2984s61.07-6.8218 72.826-21.75c13.349-16.951 4.6245-86.18 4.6245-86.18l103.83-109.9c12.94 0.65505 59.337 2.2019 71.429-8.4904 12.414-10.975 15.326-64.48 15.326-64.48l-2.1215-2.0065-28.811 30.487-29.225 8.7295-22.171-20.946 7.0539-29.671 28.894-30.408-1.7997-1.6986s-53.087 6.0817-63.506 18.967c-9.7684 12.078-7.2171 56.031-6.1805 69.491l-104.14 110.24s-68.057-2.7099-83.698 11.483" fill="#999"/><path d="m555.46 330.16c-3.79 3.28-171.98 179.67-171.98 179.67l12.543 11.848-8.0882 34.028-33.026 34.973 2.434 2.2984s61.07-6.8218 72.826-21.75c13.349-16.951 4.6245-86.18 4.6245-86.18l103.83-109.91c12.94 0.65505 59.337 2.2019 71.429-8.4904 12.414-10.975 15.326-64.48 15.326-64.48l-2.1215-2.0065-28.811 30.487-29.225 8.7295-9.7615-9.2213" fill="#e6e6e6"/><path d="m428.75 461.56c-3.4362-3.2477-3.5902-8.6651-0.34477-12.104l73.412-77.71c3.2477-3.4385 8.6651-3.5925 12.104-0.34476 3.4362 3.2454 3.5902 8.6651 0.34477 12.101l-73.412 77.713c-3.2477 3.4385-8.6651 3.5925-12.104 0.34477" fill="#fefefe"/></g></g></svg>
